# File created by Blade
# Date/Time:  Tue Jan 27 20:02:46 2015
#---------------------------------------------------------
:version 1.10
:name HOM
:units
  mass 1.0
  length 1.000000
  angle deg
:documentation
     Acclaim Skeleton File
:root
   axis xyz
   order TX TY TZ RX RY RZ
   position 0.000000 0.000000 0.000000
   orientation 0 0 0
:bonedata
   begin
      id 1
      name Spine_dum
      direction 0.000000 1.000000 0.000000
      length 6.116652
      axis 0.0 0.0 0.0 xyz
   end
   begin
      id 2
      name LeftUpLeg_dum
      direction 1.000000 0.000000 0.000000
      length 4.711765
      axis 0.0 0.0 0.0 xyz
   end
   begin
      id 3
      name RightUpLeg_dum
      direction -1.000000 0.000000 0.000000
      length 4.711765
      axis 0.0 0.0 0.0 xyz
   end
   begin
      id 4
      name Spine
      direction 0.000000 1.000000 0.000000
      length 0.000000
      axis 0.0 0.0 0.0 xyz
      dof rx ry rz
   end
   begin
      id 5
      name Spine_dum1
      direction 0.000000 1.000000 0.000000
      length 15.225563
      axis 0.0 0.0 0.0 xyz
   end
   begin
      id 6
      name Spine_dum2
      direction 0.000000 1.000000 0.000000
      length 8.977654
      axis 0.0 0.0 0.0 xyz
   end
   begin
      id 7
      name Spine_dum3
      direction 0.000000 1.000000 0.000000
      length 8.977654
      axis 0.0 0.0 0.0 xyz
   end
   begin
      id 8
      name Head
      direction 0.000000 1.000000 0.000000
      length 4.527550
      axis 0.0 0.0 0.0 xyz
      dof rx ry rz
   end
   begin
      id 9
      name LeftShoulder
      direction 1.000000 0.000000 0.000000
      length 7.110130
      axis 0.0 0.0 -90.0 xyz
      dof rx ry rz
   end
   begin
      id 10
      name LeftArm
      direction 1.000000 0.000000 0.000000
      length 10.398341
      axis 0.0 0.0 -90.0 xyz
      dof rx ry rz
   end
   begin
      id 11
      name LeftForeArm
      direction 1.000000 0.000000 0.000000
      length 8.888997
      axis 0.0 0.0 -90.0 xyz
      dof ry rz rx
   end
   begin
      id 12
      name LeftHand
      direction 0.000000 0.000000 0.000000
      length 0.000000
      axis 0.0 0.0 -90.0 xyz
      dof rx ry rz
   end
   begin
      id 13
      name LeftHand_dum1
      direction 0.000000 0.000000 0.000000
      length 0.000000
      axis 0.0 0.0 -90.0 xyz
   end
   begin
      id 14
      name LeftHand_dum2
      direction 1.000000 0.000000 0.000000
      length 3.937000
      axis 0.0 0.0 -90.0 xyz
   end
   begin
      id 15
      name LeftHandThumb1
      direction 0.000000 0.000000 1.000000
      length 3.937000
      axis 0.0 0.0 -90.0 xyz
      dof rx rz ry
   end
   begin
      id 16
      name RightShoulder
      direction -1.000000 0.000000 0.000000
      length 7.110130
      axis 0.0 0.0 90.0 xyz
      dof rx ry rz
   end
   begin
      id 17
      name RightArm
      direction -1.000000 0.000000 0.000000
      length 10.398341
      axis 0.0 0.0 90.0 xyz
      dof rx ry rz
   end
   begin
      id 18
      name RightForeArm
      direction -1.000000 0.000000 0.000000
      length 8.888997
      axis 0.0 0.0 90.0 xyz
      dof ry rz rx
   end
   begin
      id 19
      name RightHand
      direction 0.000000 0.000000 0.000000
      length 0.000000
      axis 0.0 0.0 90.0 xyz
      dof rx ry rz
   end
   begin
      id 20
      name RightHand_dum1
      direction 0.000000 0.000000 0.000000
      length 0.000000
      axis 0.0 0.0 90.0 xyz
   end
   begin
      id 21
      name RightHand_dum2
      direction -1.000000 0.000000 0.000000
      length 3.937000
      axis 0.0 0.0 90.0 xyz
   end
   begin
      id 22
      name RightHandThumb1
      direction 0.000000 0.000000 1.000000
      length 3.937000
      axis 0.0 0.0 90.0 xyz
      dof rx rz ry
   end
   begin
      id 23
      name LeftUpLeg
      direction 0.000000 -1.000000 0.000000
      length 15.510451
      axis 0.0 0.0 0.0 xyz
      dof rx ry rz
   end
   begin
      id 24
      name LeftLeg
      direction 0.000000 -1.000000 0.000000
      length 14.858061
      axis 0.0 0.0 0.0 xyz
      dof rx ry rz
   end
   begin
      id 25
      name LeftFoot
      direction 0.000000 -0.258819 0.965926
      length 5.128852
      axis 15.0 0.0 0.0 xyz
      dof rx ry rz
   end
   begin
      id 26
      name LeftToeBase
      direction 0.000000 0.000000 1.000000
      length 2.952750
      axis 0.0 0.0 0.0 xyz
      dof rx ry rz
   end
   begin
      id 27
      name RightUpLeg
      direction 0.000000 -1.000000 0.000000
      length 15.510451
      axis 0.0 0.0 0.0 xyz
      dof rx ry rz
   end
   begin
      id 28
      name RightLeg
      direction 0.000000 -1.000000 0.000000
      length 14.858061
      axis 0.0 0.0 0.0 xyz
      dof rx ry rz
   end
   begin
      id 29
      name RightFoot
      direction 0.000000 -0.258819 0.965926
      length 5.128852
      axis 15.0 0.0 0.0 xyz
      dof rx ry rz
   end
   begin
      id 30
      name RightToeBase
      direction 0.000000 0.000000 1.000000
      length 2.952750
      axis 0.0 0.0 0.0 xyz
      dof rx ry rz
   end
:hierarchy
   begin
      root Spine_dum LeftUpLeg_dum RightUpLeg_dum
      Spine_dum Spine
      LeftUpLeg_dum LeftUpLeg
      RightUpLeg_dum RightUpLeg
      Spine Spine_dum1 Spine_dum2 Spine_dum3
      Spine_dum1 Head
      Spine_dum2 LeftShoulder
      Spine_dum3 RightShoulder
      LeftShoulder LeftArm
      LeftArm LeftForeArm
      LeftForeArm LeftHand
      LeftHand LeftHand_dum1 LeftHand_dum2
      LeftHand_dum1 LeftHandThumb1
      RightShoulder RightArm
      RightArm RightForeArm
      RightForeArm RightHand
      RightHand RightHand_dum1 RightHand_dum2
      RightHand_dum1 RightHandThumb1
      LeftUpLeg LeftLeg
      LeftLeg LeftFoot
      LeftFoot LeftToeBase
      RightUpLeg RightLeg
      RightLeg RightFoot
      RightFoot RightToeBase
   end

# File created by Blade
# Date/Time:  Tue Jan 27 20:02:37 2015
# Frame Rate: 120.000 fps
#------------------------------------------------------
:FULLY-SPECIFIED
:DEGREES
792
root 7.640341 32.230399 3.947214 -7.306427 30.358462 -0.395484
Spine 9.603547 -11.141148 -4.630735
Head 10.197648 -15.124619 7.738816
LeftShoulder -10.792158 -7.045142 30.711746
LeftArm -1.657376 -3.098415 -81.474095
LeftForeArm -7.645007 -0.000000 110.359463
LeftHand 12.511933 -0.000000 2.470292
LeftHandThumb1 -26.253704 0.000000 33.147579
RightShoulder -23.052910 -18.694881 -19.991036
RightArm 8.382349 -22.582972 93.101927
RightForeArm -11.931219 0.000000 13.367091
RightHand 16.586568 -0.000000 10.539103
RightHandThumb1 -24.326973 -0.000000 -32.862282
LeftUpLeg 12.670620 -3.943881 -7.586747
LeftLeg -1.885705 -0.000000 0.000000
LeftFoot -12.050696 8.096089 -15.241226
LeftToeBase 21.376831 -0.000000 -0.000000
RightUpLeg -56.235470 14.455084 14.700516
RightLeg 101.524681 -0.000000 -0.000000
RightFoot 7.626940 -18.103398 16.789380
RightToeBase 16.810756 -0.000000 -0.000000
793
root 7.645646 32.225512 3.945934 -7.251654 30.443499 -0.323318
Spine 9.594474 -11.215602 -4.683003
Head 10.191116 -15.091769 7.702639
LeftShoulder -10.788858 -7.066136 30.695629
LeftArm -1.614115 -3.052327 -81.490807
LeftForeArm -7.641608 -0.000000 110.346732
LeftHand 12.478830 -0.000000 2.537067
LeftHandThumb1 -26.253704 0.000000 33.147579
RightShoulder -23.065317 -18.695333 -20.029186
RightArm 8.337318 -22.493689 93.081823
RightForeArm -11.886989 -0.000000 13.362109
RightHand 16.484421 -0.000000 10.497689
RightHandThumb1 -24.326973 -0.000000 -32.862282
LeftUpLeg 12.670104 -4.033962 -7.661660
LeftLeg -1.923117 -0.000000 0.000000
LeftFoot -12.009894 8.066287 -15.274986
LeftToeBase 21.479862 -0.000000 -0.000000
RightUpLeg -56.116688 14.381342 14.754946
RightLeg 101.318576 -0.000000 -0.000000
RightFoot 7.966732 -17.894150 16.680097
RightToeBase 16.449687 -0.000000 -0.000000
794
root 7.648935 32.220493 3.945916 -7.173999 30.492787 -0.233472
Spine 9.558557 -11.261595 -4.761062
Head 10.208027 -15.052754 7.677537
LeftShoulder -10.759785 -7.099137 30.689528
LeftArm -1.608690 -3.000062 -81.495540
LeftForeArm -7.725973 0.000000 110.365184
LeftHand 12.403814 -0.000000 2.766837
LeftHandThumb1 -26.253704 0.000000 33.147579
RightShoulder -23.055837 -18.655389 -20.074541
RightArm 8.244795 -22.435068 93.087488
RightForeArm -11.934062 -0.000000 13.329815
RightHand 16.611194 -0.000000 10.581970
RightHandThumb1 -24.326973 -0.000000 -32.862282
LeftUpLeg 12.666349 -4.066436 -7.740609
LeftLeg -1.976233 -0.000000 0.000000
LeftFoot -11.964397 8.039493 -15.273525
LeftToeBase 21.458445 -0.000000 -0.000000
RightUpLeg -56.021434 14.338047 14.812569
RightLeg 101.083566 -0.000000 -0.000000
RightFoot 8.507895 -17.730074 16.338949
RightToeBase 16.044290 -0.000000 -0.000000
795
root 7.653018 32.215686 3.947964 -7.118514 30.536239 -0.153514
Spine 9.540534 -11.302704 -4.834842
Head 10.224741 -15.008924 7.655776
LeftShoulder -10.728063 -7.150337 30.685164
LeftArm -1.628909 -2.990196 -81.491772
LeftForeArm -7.700858 -0.000000 110.368392
LeftHand 12.389205 0.000000 2.690024
LeftHandThumb1 -26.253704 0.000000 33.147579
RightShoulder -23.068101 -18.665675 -20.081304
RightArm 8.223225 -22.394676 93.054905
RightForeArm -12.003018 -0.000000 13.307594
RightHand 16.613577 0.000000 10.495383
RightHandThumb1 -24.326973 -0.000000 -32.862282
LeftUpLeg 12.685227 -4.106989 -7.814089
LeftLeg -2.044145 -0.000000 0.000000
LeftFoot -11.947504 8.028278 -15.369102
LeftToeBase 21.626792 -0.000000 -0.000000
RightUpLeg -55.917286 14.323830 14.888520
RightLeg 100.848211 -0.000000 -0.000000
RightFoot 8.964617 -17.539357 16.206118
RightToeBase 16.395066 -0.000000 -0.000000
796
root 7.655930 32.210540 3.950545 -7.075582 30.576427 -0.073285
Spine 9.539716 -11.361190 -4.917466
Head 10.241126 -14.958008 7.621920
LeftShoulder -10.694285 -7.177454 30.675355
LeftArm -1.646474 -2.985735 -81.473065
LeftForeArm -7.620163 -0.000000 110.387820
LeftHand 12.393932 -0.000000 2.834227
LeftHandThumb1 -26.253704 0.000000 33.147579
RightShoulder -23.068148 -18.688668 -20.085871
RightArm 8.242715 -22.374922 93.012060
RightForeArm -11.911306 -0.000000 13.283983
RightHand 16.536480 -0.000000 10.987973
RightHandThumb1 -24.326973 -0.000000 -32.862282
LeftUpLeg 12.709967 -4.128829 -7.886058
LeftLeg -2.092308 -0.000000 0.000000
LeftFoot -11.898835 8.028648 -15.356079
LeftToeBase 21.450543 -0.000000 -0.000000
RightUpLeg -55.801176 14.309540 14.993807
RightLeg 100.608514 -0.000000 -0.000000
RightFoot 9.452540 -17.295499 15.947863
RightToeBase 16.604497 -0.000000 -0.000000
797
root 7.659677 32.204743 3.951677 -7.012004 30.602962 0.030186
Spine 9.535112 -11.403583 -5.024698
Head 10.237670 -14.904055 7.608763
LeftShoulder -10.672880 -7.165331 30.676836
LeftArm -1.630108 -3.045107 -81.449516
LeftForeArm -7.767618 -0.000000 110.415436
LeftHand 12.460001 -0.000000 2.545801
LeftHandThumb1 -26.253704 0.000000 33.147579
RightShoulder -23.063449 -18.636212 -20.109903
RightArm 8.188806 -22.371661 92.986264
RightForeArm -11.976780 -0.000000 13.264834
RightHand 16.751790 0.000000 10.944032
RightHandThumb1 -24.326973 -0.000000 -32.862282
LeftUpLeg 12.727771 -4.154252 -7.982949
LeftLeg -2.142032 -0.000000 0.000000
LeftFoot -11.877786 8.029114 -15.384029
LeftToeBase 21.749931 -0.000000 -0.000000
RightUpLeg -55.708009 14.287687 15.085763
RightLeg 100.368933 -0.000000 -0.000000
RightFoot 9.964271 -17.044932 15.772726
RightToeBase 16.342103 -0.000000 -0.000000
798
root 7.661308 32.200057 3.956235 -6.995565 30.628728 0.102295
Spine 9.562897 -11.458869 -5.118224
Head 10.243212 -14.831702 7.591080
LeftShoulder -10.657299 -7.166830 30.678347
LeftArm -1.628813 -3.074133 -81.406740
LeftForeArm -7.786961 -0.000000 110.448807
LeftHand 12.407003 -0.000000 2.554735
LeftHandThumb1 -26.253704 0.000000 33.147579
RightShoulder -23.052488 -18.644466 -20.108113
RightArm 8.217404 -22.348356 92.937108
RightForeArm -12.018291 -0.000000 13.230528
RightHand 16.720018 -0.000000 10.650232
RightHandThumb1 -24.326973 -0.000000 -32.862282
LeftUpLeg 12.779475 -4.179389 -8.048506
LeftLeg -2.182742 -0.000000 0.000000
LeftFoot -11.825092 8.034911 -15.288208
LeftToeBase 21.500677 -0.000000 -0.000000
RightUpLeg -55.570172 14.241580 15.233792
RightLeg 100.108256 -0.000000 -0.000000
RightFoot 10.397869 -16.791070 15.697026
RightToeBase 16.162954 -0.000000 -0.000000
799
root 7.663067 32.195160 3.958028 -6.953943 30.653389 0.179882
Spine 9.567453 -11.511606 -5.203648
Head 10.252935 -14.762768 7.555713
LeftShoulder -10.630194 -7.144051 30.669877
LeftArm -1.619078 -3.112884 -81.357202
LeftForeArm -7.863502 0.000000 110.469970
LeftHand 12.402671 -0.000000 2.502741
LeftHandThumb1 -26.253704 0.000000 33.147579
RightShoulder -23.036893 -18.670834 -20.129502
RightArm 8.240948 -22.319308 92.920399
RightForeArm -11.929399 -0.000000 13.222116
RightHand 16.568329 -0.000000 11.181512
RightHandThumb1 -24.326973 -0.000000 -32.862282
LeftUpLeg 12.798110 -4.216234 -8.125545
LeftLeg -2.230286 -0.000000 0.000000
LeftFoot -11.804233 8.081971 -15.325687
LeftToeBase 21.585339 -0.000000 -0.000000
RightUpLeg -55.454114 14.177361 15.424020
RightLeg 99.814686 -0.000000 -0.000000
RightFoot 10.800862 -16.743995 15.549520
RightToeBase 16.276320 -0.000000 -0.000000
800
root 7.664281 32.189724 3.961479 -6.916857 30.674111 0.256281
Spine 9.571565 -11.565618 -5.296098
Head 10.271968 -14.702927 7.521212
LeftShoulder -10.630590 -7.085795 30.672202
LeftArm -1.561679 -3.127144 -81.308259
LeftForeArm -7.927124 0.000000 110.467538
LeftHand 12.380830 -0.000000 2.497459
LeftHandThumb1 -26.253704 0.000000 33.147579
RightShoulder -23.049269 -18.623933 -20.186387
RightArm 8.222889 -22.405827 92.927943
RightForeArm -11.890386 0.000000 13.155168
RightHand 16.538039 -0.000000 11.074037
RightHandThumb1 -24.326973 -0.000000 -32.862282
LeftUpLeg 12.827924 -4.303063 -8.213030
LeftLeg -2.265169 -0.000000 0.000000
LeftFoot -11.780325 8.181476 -15.206043
LeftToeBase 21.503616 -0.000000 -0.000000
RightUpLeg -55.336488 14.130450 15.628669
RightLeg 99.509460 -0.000000 -0.000000
RightFoot 11.078383 -16.762779 15.791370
RightToeBase 16.529476 -0.000000 -0.000000
